<svg id="visual" viewBox="0 0 900 900" width="900" height="900" xmlns="http://www.w3.org/2000/svg"
    xmlns:xlink="http://www.w3.org/1999/xlink" version="1.1">
    <g transform="translate(1059.0916515188533 28.164660332741107)">
        <path
            d="M330.1 -511.2C383.6 -415.5 352.3 -259.9 353.9 -141.8C355.4 -23.6 389.8 57.1 371.4 122.8C352.9 188.4 281.7 239 211 349.4C140.3 459.8 70.1 629.9 -2.8 633.8C-75.8 637.7 -151.6 475.4 -282.7 384.7C-413.8 293.9 -600.2 274.7 -665.3 189.1C-730.4 103.4 -674.3 -48.7 -631.4 -212.7C-588.5 -376.6 -558.7 -552.4 -455.7 -631.9C-352.7 -711.4 -176.3 -694.7 -19 -668.5C138.3 -642.4 276.7 -606.8 330.1 -511.2"
            fill="none" stroke="#ffffff" stroke-width="1"></path>
    </g>
</svg>