<svg xmlns="http://www.w3.org/2000/svg" version="1.1" xmlns:xlink="http://www.w3.org/1999/xlink"
    xmlns:svgjs="http://svgjs.dev/svgjs" viewBox="0 0 800 800">
    <defs>
        <linearGradient gradientTransform="rotate(270)" x1="50%" y1="0%" x2="50%" y2="100%" id="sssquiggly-grad">
            <stop stop-color="hsl(206, 75%, 49%)" stop-opacity="1" offset="0%"></stop>
            <stop stop-color="hsl(331, 90%, 56%)" stop-opacity="1" offset="100%"></stop>
        </linearGradient>
    </defs>
    <g stroke-width="2" stroke="hsla(0, 0%, 100%, 1.00)" fill="none" stroke-linecap="round"
        transform="matrix(1,0,0,1,0,47.97767734527588)">
        <path
            d="M10,10C21.805555555555557,15,40.97222222222223,38.166666666666664,66.66666666666667,34C92.36111111111111,29.833333333333332,105.55555555555557,-10.208333333333334,133.33333333333334,-10C161.11111111111111,-9.791666666666666,172.22222222222223,35.416666666666664,200,35C227.77777777777777,34.583333333333336,238.8888888888889,-9.916666666666666,266.6666666666667,-12C294.44444444444446,-14.083333333333334,305.5555555555556,23.75,333.33333333333337,25C361.11111111111114,26.25,372.22222222222223,-8.916666666666668,400,-6C427.77777777777777,-3.083333333333333,438.8888888888889,38.791666666666664,466.6666666666667,39C494.44444444444446,39.208333333333336,505.5555555555556,-5.833333333333333,533.3333333333334,-5C561.1111111111111,-4.166666666666667,572.2222222222222,42.375,600,43C627.7777777777778,43.625,638.8888888888889,-3.6666666666666665,666.6666666666667,-2C694.4444444444446,-0.3333333333333335,707.6388888888889,48.5,733.3333333333334,51C759.0277777777778,53.5,778.1944444444445,18.541666666666664,790,10">
        </path>
        <path
            d="M10,10C21.805555555555557,15,40.97222222222223,38.166666666666664,66.66666666666667,34C92.36111111111111,29.833333333333332,105.55555555555557,-10.208333333333334,133.33333333333334,-10C161.11111111111111,-9.791666666666666,172.22222222222223,35.416666666666664,200,35C227.77777777777777,34.583333333333336,238.8888888888889,-9.916666666666666,266.6666666666667,-12C294.44444444444446,-14.083333333333334,305.5555555555556,23.75,333.33333333333337,25C361.11111111111114,26.25,372.22222222222223,-8.916666666666668,400,-6C427.77777777777777,-3.083333333333333,438.8888888888889,38.791666666666664,466.6666666666667,39C494.44444444444446,39.208333333333336,505.5555555555556,-5.833333333333333,533.3333333333334,-5C561.1111111111111,-4.166666666666667,572.2222222222222,42.375,600,43C627.7777777777778,43.625,638.8888888888889,-3.6666666666666665,666.6666666666667,-2C694.4444444444446,-0.3333333333333335,707.6388888888889,48.5,733.3333333333334,51C759.0277777777778,53.5,778.1944444444445,18.541666666666664,790,10"
            transform="matrix(1,0,0,1,0,665)"></path>
        <path
            d="M10,10C21.805555555555557,15,40.97222222222223,38.166666666666664,66.66666666666667,34C92.36111111111111,29.833333333333332,105.55555555555557,-10.208333333333334,133.33333333333334,-10C161.11111111111111,-9.791666666666666,172.22222222222223,35.416666666666664,200,35C227.77777777777777,34.583333333333336,238.8888888888889,-9.916666666666666,266.6666666666667,-12C294.44444444444446,-14.083333333333334,305.5555555555556,23.75,333.33333333333337,25C361.11111111111114,26.25,372.22222222222223,-8.916666666666668,400,-6C427.77777777777777,-3.083333333333333,438.8888888888889,38.791666666666664,466.6666666666667,39C494.44444444444446,39.208333333333336,505.5555555555556,-5.833333333333333,533.3333333333334,-5C561.1111111111111,-4.166666666666667,572.2222222222222,42.375,600,43C627.7777777777778,43.625,638.8888888888889,-3.6666666666666665,666.6666666666667,-2C694.4444444444446,-0.3333333333333335,707.6388888888889,48.5,733.3333333333334,51C759.0277777777778,53.5,778.1944444444445,18.541666666666664,790,10"
            transform="matrix(1,0,0,1,0,630)"></path>
        <path
            d="M10,10C21.805555555555557,15,40.97222222222223,38.166666666666664,66.66666666666667,34C92.36111111111111,29.833333333333332,105.55555555555557,-10.208333333333334,133.33333333333334,-10C161.11111111111111,-9.791666666666666,172.22222222222223,35.416666666666664,200,35C227.77777777777777,34.583333333333336,238.8888888888889,-9.916666666666666,266.6666666666667,-12C294.44444444444446,-14.083333333333334,305.5555555555556,23.75,333.33333333333337,25C361.11111111111114,26.25,372.22222222222223,-8.916666666666668,400,-6C427.77777777777777,-3.083333333333333,438.8888888888889,38.791666666666664,466.6666666666667,39C494.44444444444446,39.208333333333336,505.5555555555556,-5.833333333333333,533.3333333333334,-5C561.1111111111111,-4.166666666666667,572.2222222222222,42.375,600,43C627.7777777777778,43.625,638.8888888888889,-3.6666666666666665,666.6666666666667,-2C694.4444444444446,-0.3333333333333335,707.6388888888889,48.5,733.3333333333334,51C759.0277777777778,53.5,778.1944444444445,18.541666666666664,790,10"
            transform="matrix(1,0,0,1,0,595)"></path>
        <path
            d="M10,10C21.805555555555557,15,40.97222222222223,38.166666666666664,66.66666666666667,34C92.36111111111111,29.833333333333332,105.55555555555557,-10.208333333333334,133.33333333333334,-10C161.11111111111111,-9.791666666666666,172.22222222222223,35.416666666666664,200,35C227.77777777777777,34.583333333333336,238.8888888888889,-9.916666666666666,266.6666666666667,-12C294.44444444444446,-14.083333333333334,305.5555555555556,23.75,333.33333333333337,25C361.11111111111114,26.25,372.22222222222223,-8.916666666666668,400,-6C427.77777777777777,-3.083333333333333,438.8888888888889,38.791666666666664,466.6666666666667,39C494.44444444444446,39.208333333333336,505.5555555555556,-5.833333333333333,533.3333333333334,-5C561.1111111111111,-4.166666666666667,572.2222222222222,42.375,600,43C627.7777777777778,43.625,638.8888888888889,-3.6666666666666665,666.6666666666667,-2C694.4444444444446,-0.3333333333333335,707.6388888888889,48.5,733.3333333333334,51C759.0277777777778,53.5,778.1944444444445,18.541666666666664,790,10"
            transform="matrix(1,0,0,1,0,560)"></path>
        <path
            d="M10,10C21.805555555555557,15,40.97222222222223,38.166666666666664,66.66666666666667,34C92.36111111111111,29.833333333333332,105.55555555555557,-10.208333333333334,133.33333333333334,-10C161.11111111111111,-9.791666666666666,172.22222222222223,35.416666666666664,200,35C227.77777777777777,34.583333333333336,238.8888888888889,-9.916666666666666,266.6666666666667,-12C294.44444444444446,-14.083333333333334,305.5555555555556,23.75,333.33333333333337,25C361.11111111111114,26.25,372.22222222222223,-8.916666666666668,400,-6C427.77777777777777,-3.083333333333333,438.8888888888889,38.791666666666664,466.6666666666667,39C494.44444444444446,39.208333333333336,505.5555555555556,-5.833333333333333,533.3333333333334,-5C561.1111111111111,-4.166666666666667,572.2222222222222,42.375,600,43C627.7777777777778,43.625,638.8888888888889,-3.6666666666666665,666.6666666666667,-2C694.4444444444446,-0.3333333333333335,707.6388888888889,48.5,733.3333333333334,51C759.0277777777778,53.5,778.1944444444445,18.541666666666664,790,10"
            transform="matrix(1,0,0,1,0,525)"></path>
        <path
            d="M10,10C21.805555555555557,15,40.97222222222223,38.166666666666664,66.66666666666667,34C92.36111111111111,29.833333333333332,105.55555555555557,-10.208333333333334,133.33333333333334,-10C161.11111111111111,-9.791666666666666,172.22222222222223,35.416666666666664,200,35C227.77777777777777,34.583333333333336,238.8888888888889,-9.916666666666666,266.6666666666667,-12C294.44444444444446,-14.083333333333334,305.5555555555556,23.75,333.33333333333337,25C361.11111111111114,26.25,372.22222222222223,-8.916666666666668,400,-6C427.77777777777777,-3.083333333333333,438.8888888888889,38.791666666666664,466.6666666666667,39C494.44444444444446,39.208333333333336,505.5555555555556,-5.833333333333333,533.3333333333334,-5C561.1111111111111,-4.166666666666667,572.2222222222222,42.375,600,43C627.7777777777778,43.625,638.8888888888889,-3.6666666666666665,666.6666666666667,-2C694.4444444444446,-0.3333333333333335,707.6388888888889,48.5,733.3333333333334,51C759.0277777777778,53.5,778.1944444444445,18.541666666666664,790,10"
            transform="matrix(1,0,0,1,0,490)"></path>
        <path
            d="M10,10C21.805555555555557,15,40.97222222222223,38.166666666666664,66.66666666666667,34C92.36111111111111,29.833333333333332,105.55555555555557,-10.208333333333334,133.33333333333334,-10C161.11111111111111,-9.791666666666666,172.22222222222223,35.416666666666664,200,35C227.77777777777777,34.583333333333336,238.8888888888889,-9.916666666666666,266.6666666666667,-12C294.44444444444446,-14.083333333333334,305.5555555555556,23.75,333.33333333333337,25C361.11111111111114,26.25,372.22222222222223,-8.916666666666668,400,-6C427.77777777777777,-3.083333333333333,438.8888888888889,38.791666666666664,466.6666666666667,39C494.44444444444446,39.208333333333336,505.5555555555556,-5.833333333333333,533.3333333333334,-5C561.1111111111111,-4.166666666666667,572.2222222222222,42.375,600,43C627.7777777777778,43.625,638.8888888888889,-3.6666666666666665,666.6666666666667,-2C694.4444444444446,-0.3333333333333335,707.6388888888889,48.5,733.3333333333334,51C759.0277777777778,53.5,778.1944444444445,18.541666666666664,790,10"
            transform="matrix(1,0,0,1,0,455)"></path>
        <path
            d="M10,10C21.805555555555557,15,40.97222222222223,38.166666666666664,66.66666666666667,34C92.36111111111111,29.833333333333332,105.55555555555557,-10.208333333333334,133.33333333333334,-10C161.11111111111111,-9.791666666666666,172.22222222222223,35.416666666666664,200,35C227.77777777777777,34.583333333333336,238.8888888888889,-9.916666666666666,266.6666666666667,-12C294.44444444444446,-14.083333333333334,305.5555555555556,23.75,333.33333333333337,25C361.11111111111114,26.25,372.22222222222223,-8.916666666666668,400,-6C427.77777777777777,-3.083333333333333,438.8888888888889,38.791666666666664,466.6666666666667,39C494.44444444444446,39.208333333333336,505.5555555555556,-5.833333333333333,533.3333333333334,-5C561.1111111111111,-4.166666666666667,572.2222222222222,42.375,600,43C627.7777777777778,43.625,638.8888888888889,-3.6666666666666665,666.6666666666667,-2C694.4444444444446,-0.3333333333333335,707.6388888888889,48.5,733.3333333333334,51C759.0277777777778,53.5,778.1944444444445,18.541666666666664,790,10"
            transform="matrix(1,0,0,1,0,420)"></path>
        <path
            d="M10,10C21.805555555555557,15,40.97222222222223,38.166666666666664,66.66666666666667,34C92.36111111111111,29.833333333333332,105.55555555555557,-10.208333333333334,133.33333333333334,-10C161.11111111111111,-9.791666666666666,172.22222222222223,35.416666666666664,200,35C227.77777777777777,34.583333333333336,238.8888888888889,-9.916666666666666,266.6666666666667,-12C294.44444444444446,-14.083333333333334,305.5555555555556,23.75,333.33333333333337,25C361.11111111111114,26.25,372.22222222222223,-8.916666666666668,400,-6C427.77777777777777,-3.083333333333333,438.8888888888889,38.791666666666664,466.6666666666667,39C494.44444444444446,39.208333333333336,505.5555555555556,-5.833333333333333,533.3333333333334,-5C561.1111111111111,-4.166666666666667,572.2222222222222,42.375,600,43C627.7777777777778,43.625,638.8888888888889,-3.6666666666666665,666.6666666666667,-2C694.4444444444446,-0.3333333333333335,707.6388888888889,48.5,733.3333333333334,51C759.0277777777778,53.5,778.1944444444445,18.541666666666664,790,10"
            transform="matrix(1,0,0,1,0,385)"></path>
        <path
            d="M10,10C21.805555555555557,15,40.97222222222223,38.166666666666664,66.66666666666667,34C92.36111111111111,29.833333333333332,105.55555555555557,-10.208333333333334,133.33333333333334,-10C161.11111111111111,-9.791666666666666,172.22222222222223,35.416666666666664,200,35C227.77777777777777,34.583333333333336,238.8888888888889,-9.916666666666666,266.6666666666667,-12C294.44444444444446,-14.083333333333334,305.5555555555556,23.75,333.33333333333337,25C361.11111111111114,26.25,372.22222222222223,-8.916666666666668,400,-6C427.77777777777777,-3.083333333333333,438.8888888888889,38.791666666666664,466.6666666666667,39C494.44444444444446,39.208333333333336,505.5555555555556,-5.833333333333333,533.3333333333334,-5C561.1111111111111,-4.166666666666667,572.2222222222222,42.375,600,43C627.7777777777778,43.625,638.8888888888889,-3.6666666666666665,666.6666666666667,-2C694.4444444444446,-0.3333333333333335,707.6388888888889,48.5,733.3333333333334,51C759.0277777777778,53.5,778.1944444444445,18.541666666666664,790,10"
            transform="matrix(1,0,0,1,0,350)"></path>
        <path
            d="M10,10C21.805555555555557,15,40.97222222222223,38.166666666666664,66.66666666666667,34C92.36111111111111,29.833333333333332,105.55555555555557,-10.208333333333334,133.33333333333334,-10C161.11111111111111,-9.791666666666666,172.22222222222223,35.416666666666664,200,35C227.77777777777777,34.583333333333336,238.8888888888889,-9.916666666666666,266.6666666666667,-12C294.44444444444446,-14.083333333333334,305.5555555555556,23.75,333.33333333333337,25C361.11111111111114,26.25,372.22222222222223,-8.916666666666668,400,-6C427.77777777777777,-3.083333333333333,438.8888888888889,38.791666666666664,466.6666666666667,39C494.44444444444446,39.208333333333336,505.5555555555556,-5.833333333333333,533.3333333333334,-5C561.1111111111111,-4.166666666666667,572.2222222222222,42.375,600,43C627.7777777777778,43.625,638.8888888888889,-3.6666666666666665,666.6666666666667,-2C694.4444444444446,-0.3333333333333335,707.6388888888889,48.5,733.3333333333334,51C759.0277777777778,53.5,778.1944444444445,18.541666666666664,790,10"
            transform="matrix(1,0,0,1,0,315)"></path>
        <path
            d="M10,10C21.805555555555557,15,40.97222222222223,38.166666666666664,66.66666666666667,34C92.36111111111111,29.833333333333332,105.55555555555557,-10.208333333333334,133.33333333333334,-10C161.11111111111111,-9.791666666666666,172.22222222222223,35.416666666666664,200,35C227.77777777777777,34.583333333333336,238.8888888888889,-9.916666666666666,266.6666666666667,-12C294.44444444444446,-14.083333333333334,305.5555555555556,23.75,333.33333333333337,25C361.11111111111114,26.25,372.22222222222223,-8.916666666666668,400,-6C427.77777777777777,-3.083333333333333,438.8888888888889,38.791666666666664,466.6666666666667,39C494.44444444444446,39.208333333333336,505.5555555555556,-5.833333333333333,533.3333333333334,-5C561.1111111111111,-4.166666666666667,572.2222222222222,42.375,600,43C627.7777777777778,43.625,638.8888888888889,-3.6666666666666665,666.6666666666667,-2C694.4444444444446,-0.3333333333333335,707.6388888888889,48.5,733.3333333333334,51C759.0277777777778,53.5,778.1944444444445,18.541666666666664,790,10"
            transform="matrix(1,0,0,1,0,280)"></path>
        <path
            d="M10,10C21.805555555555557,15,40.97222222222223,38.166666666666664,66.66666666666667,34C92.36111111111111,29.833333333333332,105.55555555555557,-10.208333333333334,133.33333333333334,-10C161.11111111111111,-9.791666666666666,172.22222222222223,35.416666666666664,200,35C227.77777777777777,34.583333333333336,238.8888888888889,-9.916666666666666,266.6666666666667,-12C294.44444444444446,-14.083333333333334,305.5555555555556,23.75,333.33333333333337,25C361.11111111111114,26.25,372.22222222222223,-8.916666666666668,400,-6C427.77777777777777,-3.083333333333333,438.8888888888889,38.791666666666664,466.6666666666667,39C494.44444444444446,39.208333333333336,505.5555555555556,-5.833333333333333,533.3333333333334,-5C561.1111111111111,-4.166666666666667,572.2222222222222,42.375,600,43C627.7777777777778,43.625,638.8888888888889,-3.6666666666666665,666.6666666666667,-2C694.4444444444446,-0.3333333333333335,707.6388888888889,48.5,733.3333333333334,51C759.0277777777778,53.5,778.1944444444445,18.541666666666664,790,10"
            transform="matrix(1,0,0,1,0,245)"></path>
        <path
            d="M10,10C21.805555555555557,15,40.97222222222223,38.166666666666664,66.66666666666667,34C92.36111111111111,29.833333333333332,105.55555555555557,-10.208333333333334,133.33333333333334,-10C161.11111111111111,-9.791666666666666,172.22222222222223,35.416666666666664,200,35C227.77777777777777,34.583333333333336,238.8888888888889,-9.916666666666666,266.6666666666667,-12C294.44444444444446,-14.083333333333334,305.5555555555556,23.75,333.33333333333337,25C361.11111111111114,26.25,372.22222222222223,-8.916666666666668,400,-6C427.77777777777777,-3.083333333333333,438.8888888888889,38.791666666666664,466.6666666666667,39C494.44444444444446,39.208333333333336,505.5555555555556,-5.833333333333333,533.3333333333334,-5C561.1111111111111,-4.166666666666667,572.2222222222222,42.375,600,43C627.7777777777778,43.625,638.8888888888889,-3.6666666666666665,666.6666666666667,-2C694.4444444444446,-0.3333333333333335,707.6388888888889,48.5,733.3333333333334,51C759.0277777777778,53.5,778.1944444444445,18.541666666666664,790,10"
            transform="matrix(1,0,0,1,0,210)"></path>
        <path
            d="M10,10C21.805555555555557,15,40.97222222222223,38.166666666666664,66.66666666666667,34C92.36111111111111,29.833333333333332,105.55555555555557,-10.208333333333334,133.33333333333334,-10C161.11111111111111,-9.791666666666666,172.22222222222223,35.416666666666664,200,35C227.77777777777777,34.583333333333336,238.8888888888889,-9.916666666666666,266.6666666666667,-12C294.44444444444446,-14.083333333333334,305.5555555555556,23.75,333.33333333333337,25C361.11111111111114,26.25,372.22222222222223,-8.916666666666668,400,-6C427.77777777777777,-3.083333333333333,438.8888888888889,38.791666666666664,466.6666666666667,39C494.44444444444446,39.208333333333336,505.5555555555556,-5.833333333333333,533.3333333333334,-5C561.1111111111111,-4.166666666666667,572.2222222222222,42.375,600,43C627.7777777777778,43.625,638.8888888888889,-3.6666666666666665,666.6666666666667,-2C694.4444444444446,-0.3333333333333335,707.6388888888889,48.5,733.3333333333334,51C759.0277777777778,53.5,778.1944444444445,18.541666666666664,790,10"
            transform="matrix(1,0,0,1,0,175)"></path>
        <path
            d="M10,10C21.805555555555557,15,40.97222222222223,38.166666666666664,66.66666666666667,34C92.36111111111111,29.833333333333332,105.55555555555557,-10.208333333333334,133.33333333333334,-10C161.11111111111111,-9.791666666666666,172.22222222222223,35.416666666666664,200,35C227.77777777777777,34.583333333333336,238.8888888888889,-9.916666666666666,266.6666666666667,-12C294.44444444444446,-14.083333333333334,305.5555555555556,23.75,333.33333333333337,25C361.11111111111114,26.25,372.22222222222223,-8.916666666666668,400,-6C427.77777777777777,-3.083333333333333,438.8888888888889,38.791666666666664,466.6666666666667,39C494.44444444444446,39.208333333333336,505.5555555555556,-5.833333333333333,533.3333333333334,-5C561.1111111111111,-4.166666666666667,572.2222222222222,42.375,600,43C627.7777777777778,43.625,638.8888888888889,-3.6666666666666665,666.6666666666667,-2C694.4444444444446,-0.3333333333333335,707.6388888888889,48.5,733.3333333333334,51C759.0277777777778,53.5,778.1944444444445,18.541666666666664,790,10"
            transform="matrix(1,0,0,1,0,140)"></path>
        <path
            d="M10,10C21.805555555555557,15,40.97222222222223,38.166666666666664,66.66666666666667,34C92.36111111111111,29.833333333333332,105.55555555555557,-10.208333333333334,133.33333333333334,-10C161.11111111111111,-9.791666666666666,172.22222222222223,35.416666666666664,200,35C227.77777777777777,34.583333333333336,238.8888888888889,-9.916666666666666,266.6666666666667,-12C294.44444444444446,-14.083333333333334,305.5555555555556,23.75,333.33333333333337,25C361.11111111111114,26.25,372.22222222222223,-8.916666666666668,400,-6C427.77777777777777,-3.083333333333333,438.8888888888889,38.791666666666664,466.6666666666667,39C494.44444444444446,39.208333333333336,505.5555555555556,-5.833333333333333,533.3333333333334,-5C561.1111111111111,-4.166666666666667,572.2222222222222,42.375,600,43C627.7777777777778,43.625,638.8888888888889,-3.6666666666666665,666.6666666666667,-2C694.4444444444446,-0.3333333333333335,707.6388888888889,48.5,733.3333333333334,51C759.0277777777778,53.5,778.1944444444445,18.541666666666664,790,10"
            transform="matrix(1,0,0,1,0,105)"></path>
        <path
            d="M10,10C21.805555555555557,15,40.97222222222223,38.166666666666664,66.66666666666667,34C92.36111111111111,29.833333333333332,105.55555555555557,-10.208333333333334,133.33333333333334,-10C161.11111111111111,-9.791666666666666,172.22222222222223,35.416666666666664,200,35C227.77777777777777,34.583333333333336,238.8888888888889,-9.916666666666666,266.6666666666667,-12C294.44444444444446,-14.083333333333334,305.5555555555556,23.75,333.33333333333337,25C361.11111111111114,26.25,372.22222222222223,-8.916666666666668,400,-6C427.77777777777777,-3.083333333333333,438.8888888888889,38.791666666666664,466.6666666666667,39C494.44444444444446,39.208333333333336,505.5555555555556,-5.833333333333333,533.3333333333334,-5C561.1111111111111,-4.166666666666667,572.2222222222222,42.375,600,43C627.7777777777778,43.625,638.8888888888889,-3.6666666666666665,666.6666666666667,-2C694.4444444444446,-0.3333333333333335,707.6388888888889,48.5,733.3333333333334,51C759.0277777777778,53.5,778.1944444444445,18.541666666666664,790,10"
            transform="matrix(1,0,0,1,0,70)"></path>
        <path
            d="M10,10C21.805555555555557,15,40.97222222222223,38.166666666666664,66.66666666666667,34C92.36111111111111,29.833333333333332,105.55555555555557,-10.208333333333334,133.33333333333334,-10C161.11111111111111,-9.791666666666666,172.22222222222223,35.416666666666664,200,35C227.77777777777777,34.583333333333336,238.8888888888889,-9.916666666666666,266.6666666666667,-12C294.44444444444446,-14.083333333333334,305.5555555555556,23.75,333.33333333333337,25C361.11111111111114,26.25,372.22222222222223,-8.916666666666668,400,-6C427.77777777777777,-3.083333333333333,438.8888888888889,38.791666666666664,466.6666666666667,39C494.44444444444446,39.208333333333336,505.5555555555556,-5.833333333333333,533.3333333333334,-5C561.1111111111111,-4.166666666666667,572.2222222222222,42.375,600,43C627.7777777777778,43.625,638.8888888888889,-3.6666666666666665,666.6666666666667,-2C694.4444444444446,-0.3333333333333335,707.6388888888889,48.5,733.3333333333334,51C759.0277777777778,53.5,778.1944444444445,18.541666666666664,790,10"
            transform="matrix(1,0,0,1,0,35)"></path>
    </g>
</svg>