<svg width="165" height="75" viewBox="0 0 165 75" fill="none" xmlns="http://www.w3.org/2000/svg">
<path fill-rule="evenodd" clip-rule="evenodd" d="M10.9924 0.0256679C11.0313 0.0300725 11.7097 0.29655 11.8037 0.512375C11.9338 0.809685 11.9096 1.80292 11.9662 2.40488C13.6734 20.5547 15.2946 37.878 17.0533 56.03C17.1481 57.0108 17.6111 59.1441 17.2694 59.6521C17.0526 59.9736 15.0455 60.5418 14.3466 60.1381C13.8703 59.8635 13.7116 58.3168 13.5352 57.5438C12.144 51.4691 10.9424 45.6396 9.80109 39.2185C9.75846 38.9777 9.65484 37.9184 9.53063 37.8127C9.16979 37.5073 8.41723 38.7317 8.34006 38.9483C7.76021 40.5699 7.28618 43.0064 6.87904 44.7323C5.13727 52.1085 3.58659 58.7756 1.8463 66.1929C1.66036 66.9865 1.34949 67.6281 1.63023 68.2469C2.09764 69.2768 4.65958 69.0096 6.39252 68.9494C11.2349 68.7821 15.0396 68.7402 19.7593 68.5171C20.7801 68.4693 22.0243 68.244 22.3572 68.5714C22.6703 68.879 22.6688 69.8898 22.3028 70.1387C21.867 70.4353 20.3906 70.2466 19.6512 70.2466C14.9874 70.2466 10.877 70.3545 6.17572 70.3545C4.22965 70.3545 0.840924 70.9043 0.168471 69.489C-0.297469 68.509 0.321335 66.5666 0.60134 65.381C2.47392 57.4689 4.32298 49.81 6.28375 41.9199C6.82024 39.7617 7.06571 37.9206 8.55686 36.8921C8.85671 36.6858 9.26974 36.5515 9.31457 36.4061C9.39173 36.1529 9.02207 34.9739 8.93535 34.4057C8.21953 29.7053 8.063 24.074 8.28568 18.6211C8.39371 15.9894 8.3261 12.1992 8.4481 9.43094C8.50542 8.13746 8.50248 6.55988 8.50248 4.72757C8.50248 3.51851 8.32536 0.955771 8.77293 0.402994C9.04853 0.064575 10.2847 -0.0587535 10.9924 0.0256679ZM11.5877 17.865C11.3099 18.1373 11.6501 19.8162 11.6957 20.3514C12.1653 25.8791 12.6305 31.3533 13.1031 36.8392C13.109 36.9075 13.1766 37.9132 13.3735 37.9742C13.4794 38.0072 13.7601 37.8222 13.8064 37.704C13.8461 37.602 13.7638 37.1887 13.752 37.0551C13.2104 30.8505 12.6981 25.253 12.0205 19.1086C11.9603 18.5609 11.9471 17.8165 11.6957 17.865C11.6759 17.8687 11.6016 17.8518 11.5877 17.865ZM14.2937 41.7584C14.3958 41.5331 13.9431 39.4592 13.8608 39.2177C13.8365 39.1472 13.4889 39.3124 13.4816 39.3249C13.4073 39.4717 13.558 39.852 13.5896 40.0818C13.6793 40.7234 13.7461 41.3099 13.8601 41.9735C13.9343 41.9067 14.2496 41.8553 14.2937 41.7584Z" fill="white"/>
<path fill-rule="evenodd" clip-rule="evenodd" d="M38.7011 65.0565C42.1736 64.6814 46.4744 65.8016 47.5224 68.4077C47.5643 68.5112 47.884 69.9794 47.6304 70.1923C47.4761 70.3215 46.1437 70.1923 45.7358 70.1923C41.8032 70.1923 38.3917 70.1923 34.371 70.1923C33.8947 70.1923 32.6417 70.3112 32.4771 70.1923C32.2522 70.03 32.3404 68.6103 32.5851 68.4627C32.9188 68.2616 35.1096 68.4627 35.6159 68.4627C36.1289 68.4627 38.1441 68.6932 38.5387 68.4084C38.7959 68.2219 38.7011 67.3821 38.7011 66.7868C38.7011 66.2054 38.7011 65.878 38.7011 65.0565Z" fill="white"/>
<path fill-rule="evenodd" clip-rule="evenodd" d="M37.8891 67.7594C36.2656 67.7594 34.6414 67.7594 33.018 67.7594C33.75 66.4285 35.979 65.519 37.7266 65.1651C38.0831 65.0925 37.9427 66.0593 37.9427 66.463C37.9427 66.9879 37.9839 67.4284 37.8891 67.7594Z" fill="white"/>
<path d="M71.344 55.7859H94.6053V61.0381H65V18.2212H93.5194V23.4734H71.344V36.1472H89.4615V41.4565H71.344V55.7859ZM130.326 18.2212V23.4734H117.067V61.0381H110.722V23.4734H97.463V18.2212H130.326ZM164.332 45.3386C164.504 45.7382 165.875 49.6203 164.104 53.6736C162.046 58.5262 156.274 61.5519 149.072 61.609C142.843 61.609 137.184 58.8687 133.184 54.5299L137.413 50.3053C139.413 53.8448 144.5 56.3568 149.072 56.3568C154.045 56.2997 156.959 54.4728 158.16 51.6184C159.074 49.5061 158.331 47.2225 158.274 47.1654C157.074 43.8542 153.759 43.1121 149.072 41.6849C143.757 40.0864 137.642 38.7733 135.641 33.1786C134.555 30.267 134.841 26.8988 136.327 24.1585C139.642 17.8787 148.101 17.7074 149.072 17.7074C155.359 17.7074 160.96 20.4477 164.961 24.8436L160.789 29.0111C158.445 25.5857 153.873 22.9596 149.072 22.9596C149.015 22.9596 143.986 22.9596 142.042 26.6133C141.299 28.0406 141.128 29.9245 141.642 31.4088C142.785 34.5487 146.043 35.2909 150.615 36.661C156.045 38.3166 162.16 39.5726 164.332 45.3386Z" fill="white"/>
</svg>
